<svg aria-label="Blog" xmlns="http://www.w3.org/2000/svg" viewBox="0 0 1792 1792" width="1792" height="1792"><path d="M1084.4,374.9c-12.4,12.4-27.1,18.6-44,18.6H81.6c-17,0-31.6-6.2-44-18.6c-12.4-12.4-18.6-27.1-18.6-44V205.6
	c0-17,6.2-31.6,18.6-44s27.1-18.6,44-18.6h958.7c17,0,31.6,6.2,44,18.6c12.4,12.4,18.6,27.1,18.6,44v125.3 C1103,347.8,1096.8,362.5,1084.4,374.9z M1754.4,750.8c-12.4,12.4-27.1,18.6-44,18.6H81.6c-17,0-31.6-6.2-44-18.6 c-12.4-12.4-18.6-27.1-18.6-44V581.4c0-17,6.2-31.6,18.6-44s27.1-18.6,44-18.6h1628.7c17,0,31.6,6.2,44,18.6 c12.4,12.4,18.6,27.1,18.6,44v125.3C1773,723.7,1766.8,738.4,1754.4,750.8z M1754.4,1126.6c-12.4,12.4-27.1,18.6-44,18.6H81.6 c-17,0-31.6-6.2-44-18.6s-18.6-27.1-18.6-44V957.3c0-17,6.2-31.6,18.6-44c12.4-12.4,27.1-18.6,44-18.6h1628.7c17,0,31.6,6.2,44,18.6 c12.4,12.4,18.6,27.1,18.6,44v125.3C1773,1099.5,1766.8,1114.2,1754.4,1126.6z M1754.4,1502.5c-12.4,12.4-27.1,18.6-44,18.6H81.6 c-17,0-31.6-6.2-44-18.6s-18.6-27.1-18.6-44v-125.3c0-17,6.2-31.6,18.6-44c12.4-12.4,27.1-18.6,44-18.6h1628.7 c17,0,31.6,6.2,44,18.6c12.4,12.4,18.6,27.1,18.6,44v125.3C1773,1475.4,1766.8,1490.1,1754.4,1502.5z"/></svg>
