<svg aria-label="E-mail" xmlns="http://www.w3.org/2000/svg" viewBox="0 -256 1850 1850" width="100%" height="100%"><g transform="matrix(1,0,0,-1,30.372881,1252.3051)"><path d="M 1792,826 V 32 q 0,-66 -47,-113 -47,-47 -113,-47 H 160 Q 94,-128 47,-81 0,-34 0,32 V 826 Q 44,777 101,739 463,493 598,394 655,352 690.5,328.5 726,305 785,280.5 844,256 895,256 h 1 1 q 51,0 110,24.5 59,24.5 94.5,48 35.5,23.5 92.5,65.5 170,123 498,345 57,39 100,87 z m 0,294 q 0,-79 -49,-151 -49,-72 -122,-123 -376,-261 -468,-325 -10,-7 -42.5,-30.5 -32.5,-23.5 -54,-38 Q 1035,438 1004.5,420 974,402 947,393 q -27,-9 -50,-9 h -1 -1 q -23,0 -50,9 -27,9 -57.5,27 -30.5,18 -52,32.5 -21.5,14.5 -54,38 Q 649,514 639,521 548,585 377,703.5 206,822 172,846 110,888 55,961.5 0,1035 0,1098 q 0,78 41.5,130 41.5,52 118.5,52 h 1472 q 65,0 112.5,-47 47.5,-47 47.5,-113 z"></g></svg>
