<svg aria-label="Mastodon" xmlns="http://www.w3.org/2000/svg" xmlns:xlink="http://www.w3.org/1999/xlink" version="1.1" width="500" height="500" viewBox="0 0 500 500" xml:space="preserve"><path d="M 452.80806 297.34888 C 446.00729 332.3375 391.89558 370.62805000000003 329.74917 378.04894 C 297.3415 381.91644 265.43583 385.46968000000004 231.41100999999998 383.91019 C 175.76885 381.36086 131.86325 370.62819 131.86325 370.62819 C 131.86325 376.04505 132.19664 381.20304000000004 132.8658 386.02525 C 140.10083 440.93767 187.31612 444.22744 232.04254 445.76216000000005 C 277.1866 447.30645000000004 317.38239 434.63172000000003 317.38239 434.63172000000003 L 319.23724999999996 475.44253000000003 C 319.23724999999996 475.44253000000003 287.66161999999997 492.39836 231.41244999999998 495.5165 C 200.39611999999997 497.22232 161.88218999999998 494.73615 117.02456999999998 482.86327 C 19.736179999999976 457.11241 3.0055799999999806 353.40921000000003 0.4459499999999821 248.1844 C -0.3344000000000179 216.94217 0.1466699999999821 187.48282 0.1466699999999821 162.84483 C 0.1466699999999821 55.247600000000006 70.64414 23.709149999999994 70.64414 23.709149999999994 C 106.19084999999998 7.384049999999995 167.18588999999997 0.5177599999999956 230.59774 -0.00001000000000672685 L 232.15588 -0.00001000000000672685 C 295.56611 0.5188999999999933 356.60218 7.3840399999999935 392.14655 23.709149999999994 C 392.14655 23.709149999999994 462.64188 55.24807 462.64188 162.84483 z M 379.48522 171.35578 C 379.48522 144.72979 372.70594000000006 123.56997000000001 359.09056000000004 107.91475000000001 C 345.04464 92.26015000000001 326.65388 84.23587 303.82727000000006 84.23587 C 277.41096000000005 84.23587 257.4101600000001 94.38774000000001 244.18749000000005 114.69526 L 231.32962000000006 136.24659 L 218.47311000000008 114.69525999999999 C 205.24693000000008 94.38896 185.24591000000007 84.23586999999999 158.83333000000007 84.23586999999999 C 136.00303000000008 84.23586999999999 117.61224000000007 92.26138999999999 103.57004000000008 107.91475 C 89.95094000000007 123.56935 83.17281000000008 144.72794 83.17281000000008 171.35577999999998 L 83.17281000000008 301.63856999999996 L 134.7887000000001 301.63856999999996 L 134.7887000000001 175.18517999999995 C 134.7887000000001 148.52891999999994 146.0037800000001 134.99940999999995 168.43765000000008 134.99940999999995 C 193.24156000000008 134.99940999999995 205.6763100000001 151.04921999999996 205.6763100000001 182.78522999999996 L 205.6763100000001 252.00100999999995 L 256.98746000000006 252.00100999999995 L 256.98746000000006 182.78522999999996 C 256.98746000000006 151.04858999999996 269.4185100000001 134.99940999999995 294.22255000000007 134.99940999999995 C 316.6564200000001 134.99940999999995 327.8715000000001 148.52891999999994 327.8715000000001 175.18517999999995 L 327.8715000000001 301.63856999999996 L 379.48739000000006 301.63856999999996 z" /></svg>
