<svg aria-label="Snapchat" xmlns="http://www.w3.org/2000/svg" viewBox="0 0 512 512" width="512" height="512"><path d="M259.1,487.8c-1.4,0-2.8,0-3.8-0.1c-0.8,0.1-1.6,0.1-2.5,0.1c-29.4,0-49-13.9-66.4-26.2c-12.5-8.8-24.1-17-37.9-19.4 c-6.7-1.2-13.5-1.7-19.9-1.7c-11.7,0-21,1.8-27.7,3.1c-4.2,0.8-7.7,1.4-10.5,1.4c-2.9,0-6.4-0.7-7.9-5.6c-1.2-3.9-2-7.7-2.8-11.4 c-2-9.2-3.4-14.8-6.9-15.3c-36.8-5.6-58.7-14-63-24.2c-0.4-1-0.7-2.1-0.8-3.1c-0.1-3,2-5.6,5-6.2c29.2-4.8,55.3-20.3,77.5-46 c17-19.9,25.6-38.9,26.3-41c0-0.1,0.1-0.1,0.1-0.3c4.2-8.6,5.1-16.1,2.5-22.1c-4.7-11.3-20.4-16.3-30.9-19.5c-2.6-0.8-5-1.6-6.9-2.4 c-9.2-3.7-24.4-11.4-22.4-22c1.4-7.7,11.7-13.1,20.1-13.1c2.4,0,4.3,0.4,6,1.2c9.3,4.3,17.8,6.6,25,6.6c9,0,13.4-3.4,14.4-4.5 c-0.3-4.8-0.5-9.8-0.9-14.7l0,0c-2.1-33.7-4.7-75.5,5.9-99.5c32.1-71.8,100-77.5,120.2-77.5c0.5,0,8.8-0.1,8.8-0.1 c0.4,0,0.8,0,1.2,0c20.2,0,88.2,5.6,120.3,77.6c10.7,24,8.1,65.9,5.9,99.6l-0.1,1.6c-0.3,4.6-0.5,8.9-0.8,13.1c1,0.9,5,4.1,13.1,4.3 c6.9-0.3,14.8-2.5,23.6-6.6c2.8-1.3,5.6-1.6,7.7-1.6c3,0,6.2,0.7,8.8,1.7h0.1c7.5,2.6,12.3,7.9,12.3,13.4 c0.1,5.1-3.8,12.8-22.5,20.3c-2,0.8-4.3,1.6-6.9,2.4c-10.5,3.3-26.2,8.3-30.9,19.5c-2.6,6-1.7,13.5,2.5,22.1c0,0.1,0.1,0.1,0.1,0.3 c1.3,3,33,75.4,103.8,87c3,0.5,5.1,3.1,5,6.2c0,1-0.3,2.2-0.8,3.3c-4.3,10.1-26.1,18.5-63,24.1c-3.4,0.5-5,6.2-6.9,15.3 c-0.8,3.8-1.7,7.5-2.8,11.4c-1,3.7-3.4,5.5-7.3,5.5h-0.5c-2.5,0-6-0.4-10.5-1.3c-7.9-1.6-16.5-2.9-27.7-2.9 c-6.4,0-13.2,0.5-19.9,1.7c-13.8,2.2-25.4,10.6-37.9,19.4C308.2,473.9,288.5,487.8,259.1,487.8"/></svg>
