<svg aria-label="Speaker Deck" xmlns="http://www.w3.org/2000/svg" viewBox="0 0 512 512" width="512" height="512"><polygon points="239.3,290.1 239.3,221.8 170.3,255.9"/><polygon points="270.5,290.4 338.8,255.9 270.5,221.5 	"/><path d="M441.2,60.5H70.8C31.7,60.5,0,92.2,0,131.3v249.5c0,39.1,31.7,70.7,70.8,70.7h370.5c39.1,0,70.8-31.7,70.8-70.7V131.3 C512,92.2,480.3,60.5,441.2,60.5z M375.5,285.9c0,21.6-17.5,39.1-39.1,39.1H175.6c-21.6,0-39.1-17.5-39.1-39.1V226 c0-21.6,17.5-39.1,39.1-39.1h160.8c21.6,0,39.1,17.5,39.1,39.1V285.9z"/></svg>
