<svg aria-label="Creative Commons Attribution-ShareAlike 4.0 International License" xmlns="http://www.w3.org/2000/svg" viewBox="0 0 254 64" width="254" height="64"><path class="st0" d="M244.7,9.3C238.5,3.1,230.9,0,221.9,0c-8.8,0-16.3,3.1-22.5,9.3c-6.3,6.4-9.4,14-9.4,22.7 c0,8.8,3.1,16.3,9.4,22.6c6.4,6.3,13.9,9.4,22.5,9.4c8.8,0,16.5-3.2,22.9-9.5C251,48.5,254,41,254,32C254,23,250.9,15.5,244.7,9.3z M240.7,50.3c-5.3,5.2-11.5,7.8-18.6,7.8c-7.2,0-13.3-2.6-18.5-7.8c-5.2-5.1-7.8-11.3-7.8-18.4c0-7,2.6-13.2,7.8-18.5 c5-5.1,11.2-7.7,18.5-7.7c7.3,0,13.4,2.6,18.5,7.7c5.1,5,7.7,11.2,7.7,18.5C248.2,39.4,245.7,45.5,240.7,50.3z"/><path class="st0" d="M207.8,27.5c0.6-3.9,2.2-7,4.7-9.1c2.6-2.2,5.7-3.2,9.3-3.2c5,0,9,1.6,12,4.9c3,3.2,4.5,7.4,4.5,12.5 c0,4.9-1.5,9-4.6,12.3c-3.1,3.3-7.1,4.9-12,4.9c-3.6,0-6.7-1.1-9.4-3.3c-2.6-2.2-4.2-5.3-4.7-9.3h8.1c0.2,3.9,2.5,5.8,7,5.8 c2.2,0,4.1-1,5.4-2.9c1.4-1.9,2.1-4.5,2.1-7.8c0-3.4-0.6-6-1.9-7.7c-1.3-1.8-3.1-2.7-5.4-2.7c-4.3,0-6.7,1.9-7.2,5.7h2.3l-6.3,6.3 l-6.3-6.3L207.8,27.5L207.8,27.5z"/><path class="st0" d="M149.7,9.3C143.5,3.1,135.9,0,126.9,0c-8.8,0-16.3,3.1-22.5,9.3C98.1,15.7,95,23.2,95,32 c0,8.8,3.1,16.3,9.4,22.6c6.4,6.3,13.9,9.4,22.5,9.4c8.8,0,16.4-3.2,22.9-9.5C156,48.5,159,41,159,32C159,23,155.9,15.5,149.7,9.3z M145.7,50.3c-5.3,5.2-11.5,7.8-18.6,7.8c-7.2,0-13.3-2.6-18.5-7.8c-5.2-5.2-7.8-11.3-7.8-18.4c0-7,2.6-13.2,7.8-18.6 c5-5.1,11.2-7.7,18.5-7.7c7.2,0,13.4,2.6,18.5,7.7c5.1,5.1,7.7,11.3,7.7,18.6C153.2,39.4,150.7,45.5,145.7,50.3z"/><path class="st0" d="M135.6,24.1v13.1H132v15.5H122V37.1h-3.7V24.1c0-0.6,0.2-1.1,0.6-1.5c0.4-0.4,0.9-0.6,1.5-0.6h13.1 c0.5,0,1,0.2,1.4,0.6C135.4,23,135.6,23.5,135.6,24.1z"/><path class="st0" d="M122.5,15.8c0-3,1.5-4.5,4.5-4.5s4.5,1.5,4.5,4.5c0,3-1.5,4.5-4.5,4.5S122.5,18.8,122.5,15.8z"/><path class="st0" d="M61.7,19.7c-1.6-3.9-3.8-7.3-6.9-10.3C48.5,3.1,40.9,0,31.9,0C23.1,0,15.6,3.1,9.5,9.3 C6.4,12.4,4,15.9,2.4,19.8C0.8,23.7,0,27.8,0,32c0,4.3,0.8,8.3,2.4,12.2c1.6,3.8,3.9,7.3,7,10.4c3.1,3.1,6.5,5.4,10.4,7 c3.9,1.6,7.9,2.4,12.1,2.4c4.2,0,8.3-0.8,12.3-2.5c4-1.6,7.5-4,10.6-7.1c3-2.9,5.3-6.3,6.8-10.1C63.2,40.5,64,36.4,64,32 C64,27.7,63.2,23.6,61.7,19.7z M50.7,50.3c-2.6,2.5-5.5,4.4-8.7,5.8c-3.2,1.3-6.5,2-10,2c-3.5,0-6.8-0.7-9.9-2 c-3.2-1.3-6-3.2-8.5-5.7c-2.5-2.5-4.4-5.3-5.8-8.5c-1.4-3.2-2-6.5-2-9.9c0-3.5,0.7-6.8,2-10c1.4-3.2,3.3-6,5.8-8.6 c5-5.1,11.1-7.7,18.5-7.7c7.2,0,13.4,2.6,18.6,7.7c2.5,2.5,4.4,5.3,5.7,8.5c1.3,3.2,1.9,6.5,1.9,10.1C58.2,39.4,55.7,45.5,50.7,50.3 z"/><path class="st0" d="M31.7,26.7l-4.3,2.2c-0.5-1-1-1.6-1.7-2c-0.7-0.4-1.3-0.6-1.9-0.6c-2.9,0-4.3,1.9-4.3,5.7 c0,1.7,0.4,3.1,1.1,4.1c0.7,1,1.8,1.5,3.2,1.5c1.9,0,3.2-0.9,3.9-2.7l3.9,2c-0.8,1.6-2,2.8-3.5,3.7c-1.5,0.9-3.1,1.3-4.9,1.3 c-2.9,0-5.2-0.9-6.9-2.6c-1.8-1.8-2.6-4.2-2.6-7.3c0-3,0.9-5.5,2.7-7.3c1.8-1.8,4-2.7,6.7-2.7C27.1,22.1,29.9,23.6,31.7,26.7z"/><path class="st0" d="M50.1,26.7l-4.2,2.2c-0.5-1-1-1.6-1.7-2c-0.7-0.4-1.3-0.6-1.9-0.6c-2.9,0-4.3,1.9-4.3,5.7 c0,1.7,0.4,3.1,1.1,4.1c0.7,1,1.8,1.5,3.2,1.5c1.9,0,3.2-0.9,3.9-2.7l4,2c-0.9,1.6-2.1,2.8-3.5,3.7c-1.5,0.9-3.1,1.3-4.9,1.3 c-2.9,0-5.2-0.9-6.9-2.6c-1.7-1.8-2.6-4.2-2.6-7.3c0-3,0.9-5.5,2.7-7.3c1.8-1.8,4-2.7,6.7-2.7C45.6,22.1,48.4,23.6,50.1,26.7z"/></svg>
